<svg xmlns="http://www.w3.org/2000/svg" viewBox="0 0 80 80" fill="none" shape-rendering="auto"><metadata xmlns:rdf="http://www.w3.org/1999/02/22-rdf-syntax-ns#" xmlns:xsi="http://www.w3.org/2001/XMLSchema-instance" xmlns:dc="http://purl.org/dc/elements/1.1/" xmlns:dcterms="http://purl.org/dc/terms/"><rdf:RDF><rdf:Description><dc:title>Dylan! The Avatar Generator</dc:title><dc:creator>Natalia Spivak</dc:creator><dc:source xsi:type="dcterms:URI">https://www.figma.com/community/file/1356575240759683500</dc:source><dcterms:license xsi:type="dcterms:URI">https://creativecommons.org/licenses/by/4.0/</dcterms:license><dc:rights>Remix of „Dylan! The Avatar Generator” (https://www.figma.com/community/file/1356575240759683500) by „Natalia Spivak”, licensed under „CC BY 4.0” (https://creativecommons.org/licenses/by/4.0/)</dc:rights></rdf:Description></rdf:RDF></metadata><mask id="viewboxMask"><rect width="80" height="80" rx="0" ry="0" x="0" y="0" fill="#fff" /></mask><g mask="url(#viewboxMask)"><rect fill="#e6d5f0" width="80" height="80" x="0" y="0" /><path d="M19.07 30.47s1.57-20.23 21.59-20.23S62.3 30.55 62.3 30.55s9.43-.8 9.43 7.6c0 8.42-9.28 7.13-9.28 7.13S60.9 67.15 42.03 67.15c-21.11 0-23.4-20.8-23.4-20.8s-9 .72-9.93-6.25c-1.08-8.2 10.37-9.64 10.37-9.64" fill="#c26450"/><path d="m64.3 39.49.46-.41.1-.09c.12-.1-.13.1-.02.02l.24-.17q.5-.35 1.06-.62l.26-.12.05-.02.05-.02.58-.21q.6-.18 1.2-.28c.52-.08.85-.76.7-1.23-.18-.56-.67-.8-1.23-.7a9.3 9.3 0 0 0-4.87 2.43c-.38.36-.4 1.06 0 1.4.4.36 1 .4 1.4 0zm-51.8-1.16.14.01c-.27-.02-.11-.01-.04 0l.3.05.52.14.28.09.12.05c.02 0 .22.09.06.02-.14-.1 0-.04.03-.03l.15.06.26.13.47.3.27.22q.47.38.83.83c.33.4 1.07.37 1.41 0 .4-.43.36-.98 0-1.4a7.3 7.3 0 0 0-4.84-2.53c-.52-.06-1.02.5-1 1 .03.59.44.94 1 1m18.3-1.9v4.54c0 .52.46 1.02 1 1s1-.44 1-1V36.4c0-.52-.46-1.02-1-1s-1 .44-1 1M49.2 36l-.15 4.81a1 1 0 0 0 1 1c.56-.02.98-.44 1-1l.15-4.8a1 1 0 0 0-1-1 1 1 0 0 0-1 1" fill="black"/><path d="M30.5 32.66q.36-.4.77-.76l.09-.08.04-.03c-.12.09 0 0 .02 0l.12-.1.45-.3.44-.25.24-.12.14-.06c.03-.01.16-.07.02 0l.05-.02.1-.04.26-.1.55-.15c.5-.12.86-.73.7-1.23s-.7-.83-1.23-.7a8 8 0 0 0-4.17 2.52c-.34.4-.42 1.03 0 1.4.38.36 1.05.43 1.41 0m18.4-1.87q.9.15 1.8.43l.4.15.25.09.06.02-.06-.03c.02.04.19.08.23.1l.17.08.46.23c.46.25 1.1.13 1.37-.36.26-.5.13-1.1-.36-1.37a12 12 0 0 0-3.8-1.3c-.28-.03-.52-.04-.77.1a1 1 0 0 0-.46.6c-.1.49.15 1.15.7 1.24zM36.4 47.12a17 17 0 0 1 11.35-.1c1.22.4 1.74-1.52.53-1.94a18.8 18.8 0 0 0-12.4.1c-.5.19-.86.69-.7 1.24.12.49.71.88 1.22.7" fill="black"/><path d="M19.51 30.42c16.36-4.9 20.13-15.57 20.13-15.57S51.18 29.46 60.6 30.5c0-.01.85-.03 2.57.15 0 0-3.22-21.28-23.36-20.56S18.19 30.61 18.19 30.61l1.32-.2z" fill="#1d5dff"/></g></svg>